<svg width="500" height="500" viewBox="0 0 500 500" fill="none" xmlns="http://www.w3.org/2000/svg">
<g clip-path="url(#clip0_1_9)">
<path d="M69 204.917L71.8334 209.133C66.1667 208.967 60.2334 208.417 59.1 205.983C59.1 205.867 59.1334 205.75 59.1667 205.633C62.3334 204.8 65.05 204.75 69 204.917ZM99.1 217.75L100.467 221.917L97.2667 222.05L98.0334 217.783C98.3895 217.783 98.7455 217.783 99.1 217.75ZM110 248.167C107.167 250.767 104.983 252.5 103.3 256.45C100.967 254.533 99.75 250.733 99 246.483C98.1667 241.85 97.9 236.7 97.2667 232.85L97.4667 230.883L100.75 230.65L109.117 246.483L110 248.15V248.167ZM105.767 209.133C106.182 206.287 106.61 203.443 107.05 200.6L108.133 200.533C107.333 203.4 106.533 206.267 105.767 209.133ZM103.483 170.433L118.483 174.5C118.459 174.722 118.437 174.944 118.417 175.167C111.433 180.333 104.983 182.6 101.517 191.933L102.833 171.167L103.483 170.45V170.433ZM117.483 148.933C116.517 158.6 117.883 162.867 119.567 168.867C122.233 170.767 123.3 171.917 122.433 174.733C117.933 172.5 113.167 170.167 106.267 170.533C106.098 170.34 105.932 170.146 105.767 169.95C107.7 162.333 111.467 157.65 114.383 151.617L117.5 148.917L117.483 148.933ZM139.05 136.067L139.7 136.017C137.633 143.15 136.8 159.6 133.183 166.133C124.633 162.083 124.8 144.533 134.367 137.6L139.05 136.067ZM131.083 188.9L138.283 196.717C135.45 205.417 130.1 211.967 127.833 222.05L123.583 221.717C119.95 211.567 129.033 195.033 130.583 187.633L137.25 188.4C138.083 190.483 138.883 192.567 139.7 194.667L131.083 188.9ZM150.783 136C150.05 144.45 151.917 148.833 152.417 155.367C148.183 157.533 143.933 159.667 139.7 161.817C140.486 153.07 142.582 144.491 145.917 136.367L150.783 136ZM155.717 123.167L156.667 123.1L155.233 127.217L152.417 127.4L154.583 124.85L155.717 123.167ZM156.667 162.583L143.933 170.417C144.2 165.683 150.233 159.3 155.283 157.533L156.45 158.167L156.667 162.583ZM165.167 132.95C164.383 137.317 163.617 141.667 162.867 146.033L160.483 147.533L159.217 148.917C156.917 145.683 156.333 137.75 156.833 131.717L165.167 132.95ZM173.633 123.117C173.633 123.283 173.6 123.417 173.583 123.55L170.333 126.667C168.167 127.5 167.9 127.467 165.167 127.367C165.517 125.95 165.917 124.533 166.3 123.117H173.633ZM182.133 105.917L178.333 114.5L165.167 113.55L165.217 112.85C170.633 110.35 175.383 107.383 182.117 105.9L182.133 105.917ZM175.267 128.25L176.667 127.417L177.883 131.717L173.633 130.883L175.267 128.233V128.25ZM186.367 140.967C181.317 142.933 174.333 142.383 170.283 144.633C169.992 142.911 169.698 141.188 169.4 139.467L172.033 136.017C176.317 137.683 180.6 139.383 184.867 141.067L186.367 140.967ZM175.517 148.7L169.75 148.917C169.617 148.317 169.517 147.717 169.4 147.1C173.45 145.45 180.25 145.3 186.367 144.617L179.917 148.167L175.517 148.7ZM190.6 148.7C185.75 149.917 181.1 154.2 177.917 157.533C177.3 153.633 184.783 146.767 188.367 144.617C189.95 146.033 190.117 145.883 190.6 148.7ZM199.1 97.3167L199.033 97.9834L193.933 101.067L186.367 101.617L186.433 100.95L199.1 97.3167ZM192.233 110.217L190.6 107.8C194.433 104.583 202.883 106.35 207.583 106.833L192.233 110.217ZM230.2 97.55C237.283 98.1334 243.767 99.8 248.7 102.883L250 102.8L249.217 103.9L242.433 105.9C238.35 105.333 234.267 104.733 230.2 104.15L203.333 100.333L203.4 99.7834C212.171 97.7002 221.206 96.9529 230.2 97.5667V97.55ZM258.417 95.2834L256.917 97.3167C252.85 97.0258 248.962 95.5286 245.75 93.0167L258.483 94.6334L258.417 95.2834ZM281.017 111.183L284.533 109.85L288.183 112.983C287.683 116.567 284.233 119.5 281.583 122.983L279.55 123.117C274.017 113.95 267.033 103.933 254.783 100.4L254.25 99.3167L259.2 97.3167C267.517 100.217 274.45 104.617 282.167 107.15C283.167 109.567 282.85 108.75 281 111.183H281.017ZM291.25 131.567L290.283 130.617L288.183 130.767L291.683 127.433L291.25 131.567ZM295 179.033C300.733 184 302.2 191.2 299.817 200.533C297.35 195 294.9 189.45 292.417 183.917C293.25 182.683 294.033 181.45 294.85 180.217C294.9 179.817 294.933 179.417 295 179.033ZM296.667 140.367L296.6 141.167L293.583 144.617L292.417 142.333C294.233 139.083 292.917 140.833 295.3 140.5L296.667 140.367ZM300.2 140.317L313.633 145.3C313.612 145.746 313.573 146.191 313.517 146.633C312.383 147.417 311.25 148.167 310.117 148.917L296.667 143.95L296.783 142.6L300.2 140.317ZM326.367 157.533L318.917 152.583L317.883 150.583C321.117 148.583 320.65 148.683 324.067 149.35C324.817 152.083 325.6 154.817 326.367 157.533ZM330.6 155.9L329.1 157.533C327.3 156.6 326.983 155.417 326.367 153.217L330.25 154.917L330.6 155.9ZM327.433 143.583L326.367 143.667C327.533 142.55 328.7 141.433 329.9 140.333C329.067 141.417 328.233 142.5 327.433 143.583ZM347.583 165.217L345.5 166.133C341.713 164.012 337.93 161.884 334.15 159.75C332.964 158.141 331.78 156.53 330.6 154.917C336.483 150.583 336.7 155.617 342.25 158.367L347.583 165.217ZM351.817 169.017L347.583 167.467L350.133 166.133L351.817 169.017ZM346.65 175.95C348.183 179.033 348.183 178.167 351.817 177.7L345.3 183.333L339.083 171.467L339.167 170.733C343.75 169.75 345.217 171.4 349.7 172.067L351.417 174.833L346.65 175.95ZM347.583 183.667L356.067 179.033C354.367 182.867 352.15 184.833 349.533 187.633L347.583 183.667ZM364.55 200.083C362.25 202.067 360.75 202.7 356.4 203.067L359.9 203.45L359.833 204.067L347.883 209.133L347.583 193.8L355.817 184.05L357.317 183.333L364.55 200.083ZM360.3 176.55C383.733 170.017 379.2 182.45 368.75 191.933C365.917 186.817 363.1 181.683 360.3 176.55ZM381.517 179.033C372.883 219.6 371.217 221.817 340.683 239.25C340.171 238.431 339.638 237.625 339.083 236.833L340.167 232.3C360.083 226.633 371.4 216.2 370.217 192.583L380.2 179.75L381.517 179.033ZM382.55 179.033C382.217 177.633 381.883 176.233 381.517 174.833L384.683 174.733L382.55 179.033ZM330.6 218.483L330.9 214L331.167 210.167L334.1 209.183C334.25 209.183 334.383 209.15 334.517 209.133C335.35 214.217 334.517 217.967 332.85 222.05C331.417 221.133 331.133 220.75 330.6 218.483ZM313.633 256.117L313.7 255.367L319.267 242.05L320.433 239.25L330.233 239.917C330.383 240.65 330.483 241.367 330.533 242.05C330.967 247.117 329.217 251.167 327.417 256.45L313.633 256.117ZM317.883 273.383L318 266.717L318.167 265.05L325.333 265.583L326.367 265.5C324.717 268.217 323.083 270.933 321.467 273.667L317.883 273.383ZM313.683 245.55L314.117 245.333L317.5 243.583L317.883 243.55L317.383 245.333L315.4 252.15L313.633 246.083L313.683 245.55ZM307.067 266.967L305.15 265.05C307.017 266.35 305.8 265.083 307.067 266.967ZM296.667 261.85C299.05 260.35 301.633 260.817 305.167 260.85L304.117 264.3C301.2 265.467 300.783 265.033 297.5 264.683L296.667 261.85ZM301.867 277.95L305.15 285.717C302.617 287.433 300.067 289.133 297.533 290.867C295.267 287.75 297.733 279.033 301.867 277.95ZM293.483 250.95L292.417 251.033L293.817 247.85L293.483 250.95ZM305.7 252.15L305.15 251.8L307.017 247.867L307.633 247.85L309.4 251.983L305.7 252.15ZM335.083 196.233L334.85 194.783C335.967 193.417 336.683 192.567 338.6 191.95L339.1 194.483C338.267 195.033 337.433 195.567 336.617 196.133L335.083 196.233ZM334.85 206.733C334.083 207.75 332.717 208.317 331.75 209.133L330.6 187.633L334.85 206.733ZM327.067 235.567C329.867 234 330.267 235.45 330.6 239.233H322.117L322.267 237.9L327.067 235.567ZM322.9 223.683L324.817 222.05L326.367 224.817L325.65 226.35L322.117 225.933L322.9 223.683ZM322.117 235.083L317.7 239.25L314.817 238.767L313.65 238.883C314.317 237.567 315.017 236.25 315.7 234.95L322.117 235.083ZM306.117 232.633C304.35 231.4 305.617 231.567 305.283 230.633L306.117 232.633ZM319.483 213.433L305.15 206C305.817 196.167 307.017 184.867 306.05 174.733C317.1 178.733 327.017 196.717 319.483 213.433ZM309.4 213.433C312.917 215.3 312.733 217 317.617 218.5C318.467 221.683 317.167 222.95 315.133 226.333L309.933 226.133C308.867 220.467 310.033 217.217 309.4 213.433ZM310.367 241.25C308.583 240.017 309.867 240.183 309.533 239.25L310.367 241.25ZM339.083 199.85L339.133 199.05L342.967 196.233C343.633 200.633 343.383 207.967 342.383 213.433C340.117 211.667 339.7 204.2 339.083 199.85ZM339.083 213.433C339.95 212 340.817 210.567 341.65 209.133L340.15 213.367L339.083 213.433ZM363.833 200.583L364.55 200.533C364.75 217.017 354.583 220.017 341.217 226.2L339.083 226.35L347.417 209.083L363.833 200.583ZM338.667 168.383C338.8 168.817 338.95 169.233 339.067 169.667L338.017 170.433L334.833 166.133L338.667 168.383ZM334.833 175.55L334.95 174.8C335.261 174.775 335.572 174.753 335.883 174.733L339.083 179.033C336.617 177.867 336.217 177.583 334.833 175.55ZM339.067 186.55L333.35 191.933L321.067 174.1L305.133 160.267L308.633 157.533C316.35 160.867 329.85 167.217 332.567 175.15C333.45 177.733 330.4 179.867 332.467 182.017C334.933 184.583 337.4 182.75 339.083 186.533L339.067 186.55ZM303.267 213.433L304.567 213.95L305.133 226.35L303.15 225.883C301.283 224.5 299.983 218.1 301.683 215.317L303.267 213.433ZM293.867 235L295.233 234.95L296.65 238.317L294.483 239.15L292.4 239.25C292.9 237.833 293.4 236.417 293.867 235ZM290 303.767L288.167 297.483C290.783 296.733 293.383 295.983 296 295.2L296.667 295.167C296.632 295.36 296.605 295.555 296.583 295.75L290 303.767ZM283.917 286.567C284.7 284.033 285.25 283.65 286.667 282.25L287.833 282.717L288.167 283.817L285.55 286.383L283.917 286.55V286.567ZM285.917 290.867L283.917 288.667L288.167 286.567L287.067 290.783L285.917 290.867ZM281.45 310.367C280.85 309.9 280.283 309.417 279.683 308.917L280.983 308.833L287.533 303.767L288.167 308.933L283.15 312.367L281.45 310.367ZM281.783 359.633C271.567 360.067 265.45 357.467 257.117 356.733L247.567 337.85L245.733 335.95C261.767 334.05 271.85 326.317 283.733 320.967C287.933 324.967 297.45 345.333 289.067 354.35C287.067 357.433 284.833 357.75 281.783 359.633ZM237.917 338.417L241.75 338.167C247.533 342.05 251.467 349 254.233 355.383L237.25 350.467C238.517 346.167 239.05 341.8 237.917 338.417ZM225.717 322.183L244.85 316.667L274.917 319.6L275.45 321.117C266.5 325.15 256.317 328.55 246.05 333.75C234.933 334.633 232.25 330.483 224.55 327.75L225.717 322.183ZM224.533 342.45L224.917 338.717L232.233 338.167C232.833 341.417 233.467 343.233 232.567 346.767L224.533 342.433V342.45ZM216.033 349.183L218.883 347.617C222.383 345.3 225 348.383 228.767 349.6L227.267 351.067L216.033 349.183ZM224.283 342.467C223.359 342.055 222.437 341.639 221.517 341.217L220.283 338.167L224.533 338.433L224.283 342.467ZM211.8 342.467L216.05 346.117C216.05 348.367 215.85 348.117 215.333 351.067L211.8 342.467ZM200.8 326.35C204.783 325.133 210.083 325.4 216.05 325.267L210.5 329.567L199.083 328.45L200.8 326.35ZM190.6 110.8C198.483 103.267 218.25 105.517 223.2 110.3L224.533 110.183C217.95 116.333 207.75 117.033 201.483 123.117C196.567 119.85 192.5 117.75 190.6 110.8ZM233.933 123.117L237.267 126.9C234.3 127.067 231.183 127.25 228.067 127.517C221.05 128.117 214.117 129.167 209.267 131.683L208.633 131.717C208.283 131.167 207.933 130.617 207.583 130.067C215.545 125.89 224.334 123.534 233.317 123.167L233.933 123.117ZM250.467 101.617C255.95 107.117 264.133 110.383 266.967 118.817C255.467 113.467 237.767 113.55 228.8 105.033C236.7 106.717 243.433 106.083 250.467 101.617ZM254.25 131.717L269.983 133.883L271.217 133.783L258.6 144.617C256.6 140.633 256.133 135.233 254.25 131.717ZM274.467 150.117L271.217 149.617L275.45 148.917L274.45 150.117H274.467ZM271.217 139.833L275.1 136.017L275.45 140.317L272.633 139.7L271.217 139.833ZM278.917 282.167L277.05 282.25L275.45 280.75L276.683 279.133L279.683 277.967L278.917 282.167ZM275.533 290.033C276.033 289.433 276.567 288.833 277.1 288.233L277.233 286.567L279.7 290.483L275.45 290.867L275.533 290.033ZM273.85 303.767L271.217 300.6L279.7 299.467L275.65 303.633L273.85 303.767ZM275.45 316.667L266.967 315.65L272.967 312.367L275.45 316.667ZM269.5 304.533L271.217 306.167L265.067 307.733L258.483 308.067L267.65 303.767L269.5 304.533ZM245.767 118.817C250.717 118.95 255.95 120.2 258.483 123.117C255.067 122.783 248.917 123.333 247.367 120.7L245.767 118.817ZM250.067 136.017C252.483 138.133 253.333 140.633 252.9 144.617C249.167 143.333 250.133 139.25 250.067 136.017ZM254.233 163.133L254.383 162.4C262.833 160.567 264.65 163.5 260.8 166.133C257.467 165.667 255.95 164.417 254.233 163.133ZM265.117 273.65L266.967 274.117C266.942 274.316 266.92 274.516 266.9 274.717L262.733 277.95L264.467 273.7L265.117 273.65ZM262.783 168.75L265.95 166.133L266.967 170.433L262.733 169.5L262.767 168.75H262.783ZM275.45 283.75L265.2 286.433L262.733 286.55C262.733 286.417 262.767 286.267 262.8 286.133C266.633 285.367 269.1 284.1 271.367 282.25L274.967 282.917L275.45 283.75ZM268.133 273.65L266.967 271.267L269.883 269.35L271.217 270.067L269.55 273.533L268.133 273.65ZM241.517 303.4L246.567 299.467L262.2 300.8L262.733 301.967L252.167 308.067C248.25 307.417 244.867 305.683 242.833 303.3L241.517 303.4ZM233.667 303.767L241.5 308.067L228.783 305.817C230.417 305.15 232.033 304.45 233.667 303.767ZM233.033 312.55C233.015 312.894 232.999 313.239 232.983 313.583L230.567 314.917L228.783 315.15L228.85 314.117C230.7 311.667 230.383 312.483 233.017 312.55H233.033ZM213.033 137.5C212.632 137.069 212.226 136.641 211.817 136.217C216.033 133.917 222.683 132.817 229.217 132.3C234.6 131.85 239.9 131.8 243.7 131.717L245.767 144.617C240.217 144.017 234.933 143.283 229.217 143.033C224.277 142.789 219.326 142.967 214.417 143.567C213.965 141.542 213.504 139.52 213.033 137.5ZM219.267 310.083L220.3 311.917L219.3 315.767L207.583 316.667C208.833 312.833 210.7 310.983 212.717 308.067L219.267 310.083ZM204.8 295.167C199.467 294.867 192.167 290.967 190.6 286.567L207.583 290.883L204.8 295.167ZM210.767 294.933L207.583 295.167L207.683 294.133L211.217 290.867C211.05 292.217 210.917 293.567 210.767 294.933ZM199.1 137.65L204.267 136.017L207.583 140.183L204.083 140.317L199.1 137.65ZM199.033 322.317C198.75 323.25 198.5 324.2 198.233 325.15C197.821 325.172 197.409 325.211 197 325.267C196.286 323.832 195.569 322.399 194.85 320.967L199.1 321.4L199.033 322.317ZM201.383 303.767L211.283 305.767L211.817 307.1L204.133 316.667L194.85 315.3L201.383 303.767ZM275.45 168.967L277.367 166.15L278.067 166.133L283.4 167.467L283.933 168.233L277.983 170.433C277.14 169.943 276.296 169.454 275.45 168.967ZM286.933 155.067L283.933 153.233C286.983 154.35 285.233 153.083 286.933 155.067ZM285.967 174.733L283.933 173L288.183 170.433L285.967 174.733ZM283.933 204.833L290.533 206.467C292.317 207.167 292.267 207.35 292.417 209.133C289.583 208.05 284.85 207.3 283.933 204.833ZM284.6 193.117L285.5 191.95L288.183 196.233L283.933 195.4L284.6 193.117ZM198.65 334.633L199.1 335.767L193.383 337.95L190.6 338.167L190.667 337.583L192.617 334.533C195.317 333.283 195.383 334.1 198.65 334.633ZM186.367 118.8C190.067 121.567 191.033 124.967 190.45 136.017C188.017 132.9 186.533 126.283 186.367 118.817V118.8ZM188.8 110.217L188.5 113.333L186.383 113.483L188.817 110.217H188.8ZM186.367 114.517C186.25 115.55 186.167 116.583 186.033 117.617L182.117 116.9L185.35 114.583L186.35 114.517H186.367ZM186.367 363.983L188.467 342.083L203.333 338.167L187.7 363.183L186.367 363.983ZM187.417 305.117L189.7 303.767C191.783 306.233 189.917 309.783 187.95 312.367C186.317 310.833 186.133 309.867 186.567 306.383L187.417 305.117ZM173.633 303.017L178.517 295.167L186.35 299.767C183.683 303.967 180.967 308.167 178.267 312.367C175.833 310.2 174.333 307.017 173.633 303.033V303.017ZM173.633 336.7L181.467 329.567L185.15 329.9L186.367 331.9C186.033 334 185.733 336.083 185.433 338.167L173.633 336.7ZM160.917 330.867L170.25 325.267L177.35 326.383L177.883 327.367L170.4 333.867C166.667 333.483 164.183 332.483 162.233 330.783L160.9 330.867H160.917ZM159.667 322.55L163.083 320.967L164.55 321.283L165.15 321.983L155.267 325.267L152.433 324.267L159.667 322.55ZM148.183 318.517L150.683 312.467C155.317 311.867 156.417 314.15 159.9 315.6L160.9 317.133L155.717 320.683L151.5 320.967L148.183 318.517ZM139.683 336.167L145.867 325.267C149.967 325.267 150.467 325.6 152.15 327.767C152.9 329.033 152.25 328.35 150.617 328.633L150.233 332.383L156.667 333.383C155.4 336.533 155.2 336.117 153.3 338.117C146.967 338.45 144.1 337.25 139.683 336.167ZM132.55 320.967L143.333 324.217L143.933 325.5L137.017 333.867L126.967 330.567L132.55 320.967ZM91 309.333L91.1334 308.05L97.15 312.683L97.6667 313.917C85.15 323.583 104.3 355.083 126.083 334.667L135.45 338.433C131.85 344.85 125.667 347.383 119.15 351.017C103.567 352.317 81.7667 326.867 91 309.333ZM105.533 313.733L105.767 316.65C104.6 315.767 103.433 314.917 102.3 314.033L101.517 312.35L105.533 313.733ZM126.967 332L119.217 338C103.95 339.6 97.7667 329.033 97.2667 316.05L100.25 312.45L101.55 312.35C109.233 318.4 116.033 327.633 126.467 330.683L126.967 332ZM112.183 269.333C110.8 268.333 110.717 267.833 110.017 266.133L112.917 255.1L116.3 252.133L118.483 255.333L112.183 269.333ZM110.017 273.05L116.7 257.233L118.067 256.433C121.15 261.867 125.617 264.333 126.967 271.717L116.9 282.233C113.77 279.901 111.375 276.72 110 273.067L110.017 273.05ZM122.733 286.217L131.233 277.933L135.45 286.55C131.212 286.422 126.973 286.311 122.733 286.217ZM143.933 199.3C139.917 207.883 134.567 213.717 131.367 222.033C129.967 214.483 138.4 203.633 141.117 196.967L142.417 196.217L143.933 199.3ZM143.933 175.633C150.25 173.683 154.483 170.117 159 166.117L160.917 171.85L155.55 179.017L143.933 175.633ZM165.15 176.083L162.85 179.017L160.917 178.683L160.95 178.217L164.817 174.717L165.15 176.083ZM161.817 157.55L162.483 157.517L165.15 163.133L164.15 166.117C160.267 164.083 160.417 161.667 161.817 157.55ZM161.017 282.233L164.933 285.05L160.917 283.283C160.939 282.932 160.973 282.582 161.017 282.233ZM160.95 286.55L165.15 288.367C165.125 288.533 165.103 288.7 165.083 288.867L156.083 295.15C153.5 293.983 153.183 291.667 152.417 289.15L152.5 288.617L160.95 286.55ZM148.4 277.933L152.433 279.567L150.267 280.817L148.183 281.05L148.4 277.933ZM148.183 191.933C153.283 193.367 151.667 192.4 151.883 196.217C149.55 194.85 149.383 194.217 148.183 191.933ZM148.183 268.75L148.533 265.033C150.517 266.417 151.2 267.233 152.433 269.333C151.017 269.136 149.6 268.941 148.183 268.75ZM156.683 215.033C155.083 217.083 155.15 216.533 152.433 217.717L154.283 213.417L156.683 215.033ZM156.683 197.733L154.017 200.517C151.35 199.017 152.6 199.617 153.8 196.833L155.383 196.217L156.683 197.733ZM156.333 190.417L152.433 187.617C155.433 188.767 154.733 188.067 156.333 190.417ZM148.183 269.333L152.433 272.717C150.267 272.667 149.1 272.2 148.183 269.333ZM160.917 269.167L159.183 269.333L157.7 266.6L156.667 265.267L158.967 265.033C159.617 266.417 160.25 267.8 160.917 269.167ZM158.583 189.533L156.667 187.633C158.533 188.933 157.3 187.667 158.567 189.55L158.583 189.533ZM158.833 260.367L156.667 255.867L157.583 252.167L158.117 252.133L160.917 260.733C160.222 260.61 159.528 260.488 158.833 260.367ZM147.717 310.417L148.183 310.983L146.667 316.667C144.882 315.926 143.31 314.751 142.093 313.25C140.877 311.748 140.054 309.967 139.7 308.067L147.717 310.433V310.417ZM135.45 316.667L139.7 320.433C136.983 319.233 136.817 319.283 135.45 316.667ZM142.783 278.533L143.283 282.25L139.7 277.95L142.783 278.533ZM138.583 298.65L135.45 290.867C139.167 292.283 142.067 296.533 143.95 299.467L138.583 298.65ZM141.917 222.083L142.967 222.05L139.867 226.35C139.367 225.283 139.983 224.267 141.7 223.017L141.917 222.083ZM139.7 259.05L138.85 260.75L136.417 258.867C136.094 258.184 135.772 257.5 135.45 256.817L138.783 256.45L139.7 259.05ZM110 295.167C118.5 300.7 132.95 305.833 135.45 316.667C125.372 311.634 116.646 304.262 110 295.167ZM132.05 291L135.45 295.167L126.967 290.867L132.05 291ZM163.117 303.767L156.667 297.267L167.95 286.567L169.4 298.35L163.117 303.767ZM169.4 310.95L170.517 308.15L172.017 308.067L173.633 312.367L169.4 310.95ZM175.117 295.167L173.633 290.867L176.717 291.433L175.117 295.167ZM169.4 150.333L169.433 149.95C170.833 149.617 172.233 149.283 173.633 148.917L170.7 153.217L169.4 150.333ZM126.617 239.25L122.733 230.65C127.717 231.733 126.9 235.283 126.617 239.25ZM116.233 243.55C112.6 241.033 110.283 236.017 110 230.65C117.45 232.4 117.033 235.333 118.5 242.133L116.233 243.55ZM111.85 221.1C106.433 215.983 114.317 195.517 117.783 190.8C119.617 188.483 121.917 188.533 124.95 187.633L126.967 188.15C121.867 197.183 118.433 209.483 117.217 222.05L111.85 221.1ZM103.933 290.867L106.517 295.217L104.2 300.633L102.867 302.05C104.767 302.317 105.2 300.683 108.033 298.367C113.533 307.283 121.933 315.817 131.2 320.667L126.15 329.567L110.817 319.7C109.067 316.45 111.483 312.717 108.667 310.733C106.117 308.933 102.833 311.533 100.233 310.75L93.0334 304.15C95.15 299.417 97.1834 294.783 101.367 292.367L103.933 290.867ZM89.2667 243.433C89.8451 239.144 90.6743 234.892 91.75 230.7L92.3167 230.65L94.5334 243.433L95.7 250.1C99.0334 259.4 102.4 268.683 105.767 277.95C97.7 273.55 92.7167 263.367 93.4334 249.667C91.5 254.083 93.1 261.033 93.7334 264.933C88.7834 260.733 88.1667 252.383 89.2667 243.433ZM81.9 247.85C81.1292 246.223 80.6444 244.475 80.4667 242.683C80.2293 240.271 80.2517 237.841 80.5334 235.433L81.2667 233.9L84.55 230.65L82.7 242.667L81.9 247.833V247.85ZM377.267 290.85L368.783 287.583L377.017 286.567L377.267 290.85ZM152.767 360.85L154.983 359.683L152.417 363.967L152.75 360.867L152.767 360.85ZM88.7834 213.45L85.1667 213.117C80.6667 211.633 76.45 206.383 76.0667 200.55C82.95 201.167 85.2834 204.433 88.6834 208.417C88.7167 210.083 88.7667 211.767 88.7834 213.45ZM88.2834 213.1C88.7834 203.817 81.7 198.017 72.5 198.267C74.0667 185.233 85.4 178.567 95.5 174.183L97.45 174.033C95.7667 190.4 97.05 204.5 90.9334 218.667C86.4167 229.1 70.4 228.9 71.2667 245L71.3834 246.333C73.6667 267.733 96.9334 272.083 100.15 290.9C65.65 308.45 107.7 382.2 134.983 338.883C139.883 339.583 144.233 341.8 150.317 339.667C153.15 338.1 153.7 336.833 154.8 333.567L164.55 338.617L165.05 339.85C156.117 346.783 149.817 356.3 140.217 362.8L141.133 360.167L138.633 359.717L137.25 360.467L136 366.3C141.483 371.9 158.1 351.65 162.967 347.683C160.217 357.3 153.417 362.25 149.633 371.05L150.8 372.25C157.967 367.117 166.75 352.583 168.083 341.533L178.817 343.317C165.367 361.5 130.817 401.5 112.65 412.183C115.417 403.5 119.817 396.867 122.05 389.733L120.75 389.833C120.363 389.432 119.974 389.032 119.583 388.633C115.167 397.333 107.883 403.45 106.583 415.183C107.36 416.346 108.343 417.357 109.483 418.167C131.083 414.567 167.15 360.283 184.383 345.45C179.717 392.283 154.617 399.583 132.85 427.95C152.633 418.083 164.633 392.917 181.55 378.95C179.683 398.5 175.033 442.217 163.333 450L165.267 449.85C178.4 441.683 179.167 408.1 183.55 390.933L185.417 372.883L204.167 346.55L205.533 345.8C207.633 352.383 217.133 359.533 227.417 357.617L234.8 354.517L253.333 361.45C255.767 388.117 254.833 403.067 237.95 423.367C255.2 414.55 261.533 380.583 255.783 362.55C295.9 367.2 294.283 353.667 286.683 324.45L293.733 324.567C292.433 322.617 288.917 324.067 286.233 322.567C285.017 321.783 285.25 321.933 284.5 320.767C294.033 310.017 317 320.7 312.167 338.55C318.767 323.75 304.183 310.583 290.133 315.883C296.133 308.767 303.4 302.917 307.2 293.5L308.567 292.767L341.567 327.433L343.517 327.283L345.017 325.25C334.517 312.817 324.033 300.367 313.567 287.917L316.933 286.383C317.678 285.616 318.591 285.033 319.602 284.683C320.612 284.333 321.69 284.224 322.75 284.367C322.194 284.09 321.638 283.813 321.083 283.533C337.933 285.217 359.467 299.267 377.05 294.733C378.667 291.917 378.75 290.4 377.767 287.65C396.5 288.117 430.2 281.85 440.933 272.75C412.1 278.8 379.633 280.85 353.167 277.317L329.717 274.567L328.4 274.667L334.717 263.333C354.05 262.967 404.75 262.483 415 250.35L412.733 247.317L403.9 246.05C403.282 247.036 402.936 248.17 402.9 249.333L409.9 250.083C394.7 253.917 352.367 262 338.55 257.283C337.1 255.517 338.167 249.383 338.233 244.967C338.258 244.176 338.225 243.385 338.133 242.6C358 236.667 372.75 223.3 378.8 203.133C382.25 191.583 379.967 176.417 387.433 169.217C392.2 169.633 393.167 171.65 396.667 173.017C394.817 170.45 392.167 169.017 388.85 167.85L382.633 172.133C376.95 174.333 371 168.583 361.35 173.067C353.517 166.367 349.1 155.783 338.517 151.733L337.433 149.9L350.267 137.417C346.067 140.933 341.783 145.083 337.5 149.25L328.9 145.4L328.4 144.15C338.2 137.217 346.9 134.65 358.05 136.85C358.567 137.883 359.117 138.9 359.65 139.933C359.133 140.817 358.667 141.067 358.217 141.317L354.467 140.317C356.083 141.267 357.767 141.567 359.45 141.867L360.867 140.483L361.083 138.55C358.65 136.383 357.9 134.817 353.117 134.65L355.4 131.283C349.933 135.05 338.833 136.05 333.4 139.317L345.967 129.417L347.467 127.4L324.217 141.267C319.25 140.933 313.967 138.6 311.283 135.817C310.856 135.85 310.428 135.883 310 135.917L337.6 117.25L337.15 115.367C326.683 121.467 316.2 127.567 305.75 133.683L295.717 131.217L296.65 122.2L368.6 65.7L369.883 65.6L368.867 63.1167C366.2 61.85 355.25 70.7334 351.117 73.3834C335.183 83.6 321.1 96.3167 305.433 105.55C311.9 97.3334 323.733 89.15 325.7 77.1834L322.533 76.7834L317.6 80.9834L322.967 78.65C319.5 89.2 303.8 108.033 294.933 114L293.9 111.517C299.667 101.817 305.35 88.7667 302.683 76.3167L297.85 73.4834L292.667 73.8667C295.983 75.1834 298.233 75.5 300.667 77.1167C302.217 89.1834 296.283 97.35 293.083 107.117L291.717 107.85C289.583 103.9 289.717 102 285.333 101.283L284.95 98.75L287.95 94.6834L290.017 93.25C290.717 94.5834 290.75 94.1 290.967 96.3834C291.581 95.4021 291.921 94.274 291.95 93.1167L289.5 92.0167L283.017 98.8834C277.6 95.2667 271.633 91.4667 264.017 90.05C268.333 81.1 281.45 66.7167 274.683 55.3667C266.417 41.5667 238.2 57.4667 227.867 68.4167C226.668 69.6377 225.626 71.0038 224.767 72.4834C225.79 71.6699 226.823 70.8698 227.867 70.0834C238.067 62.4834 265.217 44.2834 271.1 58.8334C277.267 66.95 265.45 82.5667 262.233 88.9167C251.233 87.8 239.733 86.75 227.9 86.9834C215.445 87.092 203.078 89.0811 191.217 92.8834C185.217 94.8667 159.617 110.2 158.633 110L146.967 98.7L122.567 86.45L122.433 87.7334L121 89.1167L152.267 115.583L147.5 118.5C134.633 108.75 125.767 102.833 106.617 97.85L103.383 98.1C114.567 105.8 125.833 112.85 137.083 119.917L139.333 122.95C131.3 126.333 127.9 133.367 121.117 137.733C110.517 132.667 100.7 128.067 87.85 124.183L86.95 126.817L111.017 142.317L112.317 142.217L108.167 145.083C106.25 151.533 102.5 159.017 99.3667 168.117C87.3667 177.883 71.8167 177.3 69.4 197.2C65.5667 198.25 62.8667 198.583 59.3667 201.15L59.1 203.733C61.3 206.8 80.7834 215.05 85.4334 215.85L88.3 213.083L88.2834 213.1ZM230.617 75.5L232.4 75.8334L230.017 75.5334C229.6 75.5334 229.183 75.5667 228.783 75.5834C230.667 72.0834 236.2 71.2167 241.517 71.6L241.15 74.1334L230.75 74.65L230.617 75.5ZM238.05 80.1167L243.05 78.4834C245.217 74.8834 246.45 71.0667 245.35 67.5834C240.2 66.5667 237.233 67.8167 232.417 69.85C231.54 71.2752 230.668 72.7029 229.8 74.1334L228.8 75.8C229.108 76.1577 229.442 76.492 229.8 76.8C231.433 78.1334 233.4 78.6 237.017 78.3C238.017 80 236.85 79.25 235.067 79.7167L238.067 80.1167H238.05ZM361.433 118.833L356.067 119.833L359.367 119.6L363.15 121.233L357.417 131.733C360.367 128.25 363.3 125.783 364.55 120.5L361.433 118.833ZM330.6 286.583C329.267 284.2 327.817 282.633 326.367 282.267C327.65 283.483 329.133 284.917 330.6 286.583ZM313.633 338.183L309.4 340.65L312.65 340.35L313.65 338.183H313.633ZM330.6 286.583C334.917 291.45 338.15 300.783 337.217 308.083C342.117 297.5 336.533 290.9 330.6 286.583Z" fill="white"/>
</g>
<path d="M183.157 217.36C182.709 217.36 182.309 217.208 181.957 216.904C181.621 216.6 181.453 216.104 181.453 215.416C181.453 215.048 181.501 214.528 181.597 213.856C181.709 213.184 181.853 212.456 182.029 211.672C182.205 210.872 182.397 210.08 182.605 209.296C182.829 208.512 183.045 207.816 183.253 207.208C183.461 206.584 183.645 206.12 183.805 205.816C184.013 205.448 184.205 205.224 184.381 205.144C184.573 205.048 184.757 205 184.933 205C185.253 205 185.549 205.096 185.821 205.288C186.109 205.48 186.253 205.904 186.253 206.56C186.253 206.816 186.205 207.232 186.109 207.808C186.013 208.368 185.893 209.024 185.749 209.776C185.605 210.528 185.445 211.304 185.269 212.104C185.109 212.904 184.949 213.664 184.789 214.384C184.645 215.088 184.525 215.68 184.429 216.16C184.349 216.56 184.181 216.856 183.925 217.048C183.685 217.256 183.429 217.36 183.157 217.36ZM185.917 202.624C185.389 202.624 184.901 202.472 184.453 202.168C184.005 201.848 183.781 201.36 183.781 200.704C183.781 200.16 183.917 199.72 184.189 199.384C184.461 199.048 184.781 198.808 185.149 198.664C185.533 198.504 185.869 198.424 186.157 198.424C186.445 198.424 186.765 198.488 187.117 198.616C187.469 198.728 187.773 198.944 188.029 199.264C188.301 199.568 188.437 200.008 188.437 200.584C188.437 200.968 188.301 201.32 188.029 201.64C187.757 201.944 187.421 202.184 187.021 202.36C186.637 202.536 186.269 202.624 185.917 202.624ZM194.505 218.2C193.065 218.2 191.929 217.76 191.097 216.88C190.281 215.984 189.873 214.712 189.873 213.064C189.873 212.168 189.993 211.12 190.233 209.92C190.473 208.704 190.785 207.424 191.169 206.08C191.569 204.72 191.993 203.376 192.441 202.048C192.905 200.72 193.361 199.488 193.809 198.352C194.257 197.216 194.649 196.264 194.985 195.496C195.273 194.904 195.681 194.608 196.209 194.608C196.545 194.608 196.817 194.712 197.025 194.92C197.249 195.128 197.361 195.464 197.361 195.928C197.361 196.152 197.249 196.64 197.025 197.392C196.801 198.144 196.505 199.072 196.137 200.176C195.785 201.264 195.401 202.44 194.985 203.704C194.585 204.968 194.201 206.24 193.833 207.52C193.481 208.8 193.193 210.008 192.969 211.144C192.745 212.264 192.633 213.216 192.633 214C192.633 214.32 192.721 214.576 192.897 214.768C193.089 214.96 193.337 215.056 193.641 215.056C194.297 215.056 194.969 214.936 195.657 214.696C196.361 214.456 197.049 214.152 197.721 213.784C198.409 213.416 199.057 213.024 199.665 212.608C200.273 212.192 200.817 211.8 201.297 211.432C201.793 211.048 202.193 210.744 202.497 210.52C202.897 210.216 203.169 210.064 203.313 210.064C203.857 210.064 204.129 210.328 204.129 210.856C204.129 210.984 203.969 211.248 203.649 211.648C203.377 212 202.993 212.448 202.497 212.992C202.001 213.536 201.425 214.112 200.769 214.72C200.129 215.312 199.441 215.872 198.705 216.4C197.985 216.928 197.265 217.36 196.545 217.696C195.825 218.032 195.145 218.2 194.505 218.2ZM206.229 217.792C205.093 217.792 204.181 217.392 203.493 216.592C202.805 215.776 202.461 214.688 202.461 213.328C202.461 212.896 202.517 212.456 202.629 212.008C202.757 211.56 202.909 211.144 203.085 210.76C202.989 210.616 202.909 210.432 202.845 210.208C202.797 209.968 202.773 209.688 202.773 209.368C202.773 208.328 202.957 207.376 203.325 206.512C203.693 205.632 204.189 204.872 204.813 204.232C205.437 203.592 206.125 203.096 206.877 202.744C207.629 202.392 208.389 202.216 209.157 202.216C210.469 202.216 211.541 202.656 212.373 203.536C213.221 204.416 213.645 205.784 213.645 207.64C213.645 208.568 213.501 209.512 213.213 210.472C212.925 211.432 212.533 212.352 212.037 213.232C211.557 214.096 210.997 214.872 210.357 215.56C209.733 216.248 209.061 216.792 208.341 217.192C207.637 217.592 206.933 217.792 206.229 217.792ZM205.845 209.68C205.925 209.856 205.965 210.064 205.965 210.304C205.965 210.544 205.917 210.792 205.821 211.048C205.725 211.304 205.629 211.648 205.533 212.08C205.437 212.496 205.389 213.096 205.389 213.88C205.389 214.088 205.413 214.264 205.461 214.408C205.525 214.536 205.661 214.6 205.869 214.6C206.413 214.6 206.925 214.424 207.405 214.072C207.901 213.72 208.341 213.256 208.725 212.68C209.125 212.104 209.461 211.464 209.733 210.76C210.021 210.04 210.237 209.312 210.381 208.576C210.541 207.824 210.621 207.128 210.621 206.488C210.621 206.072 210.541 205.784 210.381 205.624C210.221 205.464 209.941 205.384 209.541 205.384C208.997 205.384 208.437 205.56 207.861 205.912C207.301 206.248 206.829 206.712 206.445 207.304C206.061 207.88 205.869 208.536 205.869 209.272C205.869 209.416 205.861 209.552 205.845 209.68ZM226.699 217.6C226.539 217.6 226.235 217.592 225.787 217.576C225.339 217.56 224.803 217.536 224.179 217.504C223.555 217.472 222.907 217.44 222.235 217.408C221.579 217.376 220.955 217.352 220.363 217.336C219.771 217.32 219.291 217.312 218.923 217.312C218.347 217.312 217.867 217.136 217.483 216.784C217.115 216.416 216.931 215.904 216.931 215.248C216.931 214.864 217.139 214.36 217.555 213.736C217.987 213.096 218.547 212.392 219.235 211.624C219.923 210.84 220.667 210.048 221.467 209.248C222.283 208.448 223.091 207.696 223.891 206.992C224.707 206.272 225.427 205.656 226.051 205.144C224.995 205.288 223.979 205.456 223.003 205.648C222.027 205.84 221.179 206.008 220.459 206.152C219.755 206.296 219.275 206.368 219.019 206.368C218.555 206.368 218.187 206.24 217.915 205.984C217.643 205.712 217.507 205.352 217.507 204.904C217.507 204.712 217.707 204.512 218.107 204.304C218.507 204.08 219.051 203.872 219.739 203.68C220.427 203.488 221.203 203.312 222.067 203.152C222.947 202.992 223.859 202.872 224.803 202.792C225.763 202.696 226.707 202.648 227.635 202.648C228.083 202.648 228.459 202.76 228.763 202.984C229.083 203.192 229.323 203.464 229.483 203.8C229.659 204.12 229.747 204.448 229.747 204.784C229.747 204.912 229.571 205.176 229.219 205.576C228.867 205.976 228.403 206.472 227.827 207.064C227.251 207.64 226.611 208.272 225.907 208.96C225.203 209.632 224.499 210.32 223.795 211.024C223.107 211.712 222.467 212.368 221.875 212.992C221.283 213.616 220.803 214.16 220.435 214.624C221.059 214.608 221.763 214.584 222.547 214.552C223.331 214.52 224.091 214.488 224.827 214.456C225.563 214.424 226.203 214.4 226.747 214.384C227.291 214.368 227.635 214.36 227.779 214.36C228.291 214.36 228.659 214.48 228.883 214.72C229.107 214.96 229.219 215.24 229.219 215.56C229.219 216.04 228.987 216.504 228.523 216.952C228.075 217.384 227.467 217.6 226.699 217.6ZM241.901 218.08C241.533 218.08 241.197 217.928 240.893 217.624C240.605 217.336 240.461 216.848 240.461 216.16C240.461 215.648 240.501 214.936 240.581 214.024C240.677 213.096 240.853 211.904 241.109 210.448C240.549 211.6 239.965 212.624 239.357 213.52C238.749 214.416 238.149 215.12 237.557 215.632C236.981 216.128 236.429 216.376 235.901 216.376C235.053 216.376 234.381 216.12 233.885 215.608C233.389 215.08 233.141 214.096 233.141 212.656C233.141 211.968 233.197 211.192 233.309 210.328C233.437 209.464 233.597 208.6 233.789 207.736C233.981 206.872 234.173 206.104 234.365 205.432C234.573 204.744 234.757 204.232 234.917 203.896C235.045 203.608 235.205 203.384 235.397 203.224C235.605 203.064 235.869 202.984 236.189 202.984C236.701 202.984 237.093 203.152 237.365 203.488C237.637 203.824 237.773 204.168 237.773 204.52C237.773 204.792 237.709 205.184 237.581 205.696C237.469 206.208 237.325 206.776 237.149 207.4C236.989 208.024 236.821 208.664 236.645 209.32C236.469 209.976 236.317 210.592 236.189 211.168C236.077 211.744 236.021 212.232 236.021 212.632C236.021 213.128 236.213 213.376 236.597 213.376C236.821 213.376 237.109 213.16 237.461 212.728C237.829 212.296 238.213 211.72 238.613 211C239.029 210.264 239.445 209.464 239.861 208.6C240.293 207.72 240.685 206.832 241.037 205.936C241.405 205.024 241.717 204.184 241.973 203.416C242.133 202.936 242.349 202.6 242.621 202.408C242.893 202.216 243.205 202.12 243.557 202.12C244.101 202.12 244.517 202.272 244.805 202.576C245.109 202.88 245.261 203.312 245.261 203.872C245.261 204.128 245.221 204.56 245.141 205.168C245.061 205.776 244.957 206.488 244.829 207.304C244.717 208.12 244.581 208.984 244.421 209.896C244.261 210.808 244.101 211.704 243.941 212.584C243.797 213.464 243.653 214.272 243.509 215.008C243.365 215.728 243.245 216.304 243.149 216.736C242.989 217.376 242.797 217.76 242.573 217.888C242.349 218.016 242.125 218.08 241.901 218.08ZM249.312 218.056C248.912 218.056 248.568 217.912 248.28 217.624C248.008 217.336 247.872 216.92 247.872 216.376C247.872 216.136 247.904 215.744 247.968 215.2C248.048 214.64 248.144 214 248.256 213.28C248.384 212.56 248.504 211.808 248.616 211.024C248.744 210.24 248.848 209.496 248.928 208.792C249.024 208.088 249.088 207.488 249.12 206.992C249.152 206.384 249.312 205.952 249.6 205.696C249.888 205.424 250.232 205.288 250.632 205.288C250.952 205.288 251.24 205.368 251.496 205.528C251.768 205.672 251.936 205.984 252 206.464C252.08 206.928 252.088 207.6 252.024 208.48C252.728 207.2 253.44 206.056 254.16 205.048C254.896 204.04 255.664 203.24 256.464 202.648C257.792 201.64 258.992 201.136 260.064 201.136C260.672 201.136 261.072 201.272 261.264 201.544C261.456 201.816 261.552 202.096 261.552 202.384C261.552 202.576 261.504 202.752 261.408 202.912C261.328 203.072 261.152 203.24 260.88 203.416C260.608 203.592 260.192 203.824 259.632 204.112C258.88 204.496 258.136 205 257.4 205.624C256.68 206.248 255.96 207.048 255.24 208.024C254.52 209 253.792 210.2 253.056 211.624C252.32 213.048 251.56 214.744 250.776 216.712C250.632 217.256 250.424 217.616 250.152 217.792C249.896 217.968 249.616 218.056 249.312 218.056ZM188.308 251.872C187.572 251.872 187.044 251.664 186.724 251.248C186.404 250.832 186.244 250.224 186.244 249.424C186.244 248.688 186.38 247.728 186.652 246.544C186.94 245.344 187.316 244.008 187.78 242.536C188.26 241.048 188.796 239.52 189.388 237.952C189.98 236.368 190.596 234.816 191.236 233.296C191.876 231.76 192.5 230.352 193.108 229.072C193.396 228.512 193.7 228.128 194.02 227.92C194.34 227.712 194.692 227.608 195.076 227.608C195.444 227.608 195.756 227.712 196.012 227.92C196.268 228.112 196.396 228.424 196.396 228.856C196.396 228.952 196.268 229.32 196.012 229.96C195.756 230.584 195.42 231.4 195.004 232.408C194.588 233.4 194.132 234.52 193.636 235.768C193.14 237 192.644 238.288 192.148 239.632C191.652 240.96 191.204 242.272 190.804 243.568C190.404 244.864 190.084 246.064 189.844 247.168C190.404 246.416 191.004 245.584 191.644 244.672C192.3 243.744 192.964 242.824 193.636 241.912C194.324 240.984 194.996 240.136 195.652 239.368C196.324 238.6 196.948 237.984 197.523 237.52C198.1 237.056 198.604 236.824 199.036 236.824C199.836 236.824 200.476 237.048 200.956 237.496C201.452 237.928 201.7 238.68 201.7 239.752C201.7 240.248 201.604 240.848 201.412 241.552C201.22 242.24 200.988 242.968 200.716 243.736C200.46 244.488 200.236 245.216 200.044 245.92C199.852 246.624 199.756 247.24 199.756 247.768C199.756 248.056 199.892 248.2 200.164 248.2C200.948 248.2 201.74 248.032 202.54 247.696C203.356 247.36 204.132 246.944 204.868 246.448C205.62 245.936 206.3 245.432 206.908 244.936C207.532 244.424 208.036 244 208.42 243.664C208.692 243.408 208.94 243.24 209.164 243.16C209.388 243.064 209.596 243.016 209.788 243.016C210.444 243.016 210.772 243.344 210.772 244C210.772 244.128 210.748 244.288 210.7 244.48C210.652 244.656 210.5 244.88 210.244 245.152C209.988 245.424 209.604 245.808 209.092 246.304C208.58 246.8 207.98 247.328 207.292 247.888C206.62 248.448 205.884 248.984 205.084 249.496C204.3 249.992 203.492 250.4 202.66 250.72C201.828 251.04 201.02 251.2 200.236 251.2C199.052 251.2 198.14 250.864 197.5 250.192C196.86 249.536 196.54 248.64 196.54 247.504C196.54 246.72 196.7 245.736 197.02 244.552C197.34 243.352 197.7 242.128 198.1 240.88C197.54 241.424 196.956 242.072 196.348 242.824C195.74 243.56 195.124 244.344 194.5 245.176C193.876 245.992 193.26 246.8 192.652 247.6C192.06 248.384 191.492 249.104 190.948 249.76C190.404 250.4 189.908 250.912 189.46 251.296C189.012 251.68 188.628 251.872 188.308 251.872ZM210.005 250.912C209.493 250.912 209.029 250.768 208.613 250.48C208.197 250.208 207.869 249.848 207.629 249.4C207.389 248.936 207.269 248.44 207.269 247.912C207.269 246.92 207.485 245.952 207.917 245.008C208.365 244.064 208.949 243.168 209.669 242.32C210.389 241.472 211.173 240.696 212.021 239.992C212.885 239.272 213.741 238.656 214.589 238.144C215.453 237.632 216.237 237.232 216.941 236.944C217.661 236.656 218.221 236.512 218.621 236.512C219.085 236.512 219.461 236.616 219.749 236.824C220.053 237.016 220.205 237.32 220.205 237.736C220.205 237.864 220.173 237.968 220.109 238.048C220.317 238.096 220.485 238.216 220.613 238.408C220.741 238.6 220.805 238.888 220.805 239.272C220.805 239.432 220.765 239.848 220.685 240.52C220.605 241.192 220.517 242.008 220.421 242.968C220.341 243.928 220.301 244.928 220.301 245.968C220.301 246.128 220.325 246.272 220.373 246.4C220.421 246.512 220.525 246.568 220.685 246.568C221.325 246.568 221.973 246.44 222.629 246.184C223.301 245.912 223.949 245.584 224.573 245.2C225.213 244.8 225.789 244.408 226.301 244.024C226.829 243.624 227.269 243.296 227.621 243.04C227.989 242.768 228.229 242.632 228.341 242.632C228.885 242.632 229.157 242.904 229.157 243.448C229.157 243.592 228.981 243.896 228.629 244.36C228.293 244.808 227.829 245.328 227.237 245.92C226.645 246.496 225.981 247.072 225.245 247.648C224.525 248.208 223.773 248.672 222.989 249.04C222.221 249.408 221.477 249.592 220.757 249.592C219.877 249.592 219.205 249.384 218.741 248.968C218.293 248.552 217.973 247.992 217.781 247.288C217.605 246.568 217.509 245.76 217.493 244.864C216.677 246.032 215.829 247.072 214.949 247.984C214.085 248.88 213.229 249.592 212.381 250.12C211.533 250.648 210.741 250.912 210.005 250.912ZM218.501 238.888C216.933 239.64 215.525 240.504 214.277 241.48C213.029 242.44 212.037 243.448 211.301 244.504C210.581 245.56 210.221 246.576 210.221 247.552C210.221 247.824 210.349 247.96 210.605 247.96C210.909 247.96 211.309 247.784 211.805 247.432C212.317 247.08 212.869 246.616 213.461 246.04C214.053 245.448 214.645 244.792 215.237 244.072C215.829 243.336 216.381 242.584 216.893 241.816C217.405 241.048 217.813 240.312 218.117 239.608C218.229 239.352 218.357 239.112 218.501 238.888ZM229.885 250.744C228.925 250.744 228.261 250.552 227.893 250.168C227.541 249.8 227.365 249.288 227.365 248.632C227.365 245.848 227.885 242.944 228.925 239.92C229.981 236.88 231.461 233.832 233.365 230.776C233.685 230.248 233.949 229.936 234.157 229.84C234.365 229.744 234.597 229.696 234.853 229.696C235.221 229.696 235.541 229.824 235.813 230.08C236.101 230.336 236.245 230.672 236.245 231.088C236.245 231.216 236.109 231.568 235.837 232.144C235.565 232.72 235.205 233.456 234.757 234.352C234.325 235.248 233.853 236.264 233.341 237.4C232.829 238.52 232.325 239.704 231.829 240.952C231.349 242.2 230.933 243.456 230.581 244.72C231.125 244.032 231.741 243.328 232.429 242.608C233.133 241.872 233.861 241.2 234.613 240.592C235.365 239.968 236.093 239.472 236.797 239.104C237.501 238.72 238.133 238.528 238.693 238.528C239.221 238.528 239.709 238.656 240.157 238.912C240.621 239.168 240.997 239.568 241.285 240.112C241.573 240.656 241.717 241.36 241.717 242.224C241.717 243.168 241.445 244.136 240.901 245.128C240.373 246.12 239.597 247.04 238.573 247.888C237.565 248.736 236.325 249.424 234.853 249.952C233.397 250.48 231.741 250.744 229.885 250.744ZM230.893 248.008C232.125 247.912 233.237 247.648 234.229 247.216C235.237 246.784 236.101 246.248 236.821 245.608C237.541 244.968 238.093 244.296 238.477 243.592C238.861 242.872 239.053 242.192 239.053 241.552C239.053 241.408 239.013 241.336 238.933 241.336C238.597 241.336 238.173 241.488 237.661 241.792C237.149 242.08 236.589 242.472 235.981 242.968C235.373 243.464 234.757 244.008 234.133 244.6C233.509 245.192 232.917 245.784 232.357 246.376C231.797 246.968 231.309 247.512 230.893 248.008ZM244.425 251.056C244.025 251.056 243.681 250.912 243.393 250.624C243.121 250.336 242.985 249.92 242.985 249.376C242.985 249.136 243.017 248.744 243.081 248.2C243.161 247.64 243.257 247 243.369 246.28C243.497 245.56 243.617 244.808 243.729 244.024C243.857 243.24 243.961 242.496 244.041 241.792C244.137 241.088 244.201 240.488 244.233 239.992C244.265 239.384 244.425 238.952 244.713 238.696C245.001 238.424 245.345 238.288 245.745 238.288C246.065 238.288 246.353 238.368 246.609 238.528C246.881 238.672 247.049 238.984 247.113 239.464C247.193 239.928 247.201 240.6 247.137 241.48C247.841 240.2 248.553 239.056 249.273 238.048C250.009 237.04 250.777 236.24 251.577 235.648C252.905 234.64 254.105 234.136 255.177 234.136C255.785 234.136 256.185 234.272 256.377 234.544C256.569 234.816 256.665 235.096 256.665 235.384C256.665 235.576 256.617 235.752 256.521 235.912C256.441 236.072 256.265 236.24 255.993 236.416C255.721 236.592 255.305 236.824 254.745 237.112C253.993 237.496 253.249 238 252.513 238.624C251.793 239.248 251.073 240.048 250.353 241.024C249.633 242 248.905 243.2 248.169 244.624C247.433 246.048 246.673 247.744 245.889 249.712C245.745 250.256 245.537 250.616 245.265 250.792C245.009 250.968 244.729 251.056 244.425 251.056Z" fill="black"/>
<defs>
<clipPath id="clip0_1_9">
<rect width="400" height="400" fill="white" transform="translate(50 50)"/>
</clipPath>
</defs>
</svg>
